<?xml version="1.0" encoding="UTF-8"?>
<!DOCTYPE svg PUBLIC "-//W3C//DTD SVG 1.1//EN" "http://www.w3.org/Graphics/SVG/1.1/DTD/svg11.dtd">
<!-- Creator: CorelDRAW 2019 (64-Bit) -->
<svg xmlns="http://www.w3.org/2000/svg" xml:space="preserve" width="133.44mm" height="133.44mm" version="1.1" style="shape-rendering:geometricPrecision; text-rendering:geometricPrecision; image-rendering:optimizeQuality; fill-rule:evenodd; clip-rule:evenodd"
viewBox="0 0 133.4396 133.4395"
 xmlns:xlink="http://www.w3.org/1999/xlink"
 xmlns:xodm="http://www.corel.com/coreldraw/odm/2003">
 <defs>
  <style type="text/css">
   <![CDATA[
    .fil0 {fill:#2C54A0}
    .fil1 {fill:white}
   ]]>
  </style>
 </defs>
 <g id="Layer_x0020_1">
  <metadata id="CorelCorpID_0Corel-Layer"/>
  <g id="_723169248">
   <path class="fil0" d="M66.7472 0c36.7361,0 66.6924,29.9563 66.6924,66.7472 0,36.6807 -29.9563,66.6923 -66.6924,66.6923 -36.7355,0 -66.7472,-30.0116 -66.7472,-66.6923 0,-36.7909 30.0117,-66.7472 66.7472,-66.7472z"/>
   <path class="fil1" d="M66.7472 8.4734c32.0342,0 58.2189,26.1848 58.2189,58.2738 0,32.0343 -26.1847,58.1641 -58.2189,58.1641 -32.0339,0 -58.219,-26.1298 -58.219,-58.1641 0,-32.089 26.1851,-58.2738 58.219,-58.2738zm-38.9766 26.9502l0 0 20.8822 54.1738 7.6533 -19.7889 20.0622 0 7.6536 19.7889 21.1016 -54.8299c-3.7178,-4.4832 -8.201,-8.3094 -13.2297,-11.2617l-14.6503 40.3438 -20.6638 0 -14.7052 -40.5079c-5.4118,3.1164 -10.1681,7.2169 -14.1039,12.0819zm85.7717 13.6117l0 0 -23.7802 62.0459c15.9619,-8.3642 26.9502,-25.092 26.9502,-44.334 0,-6.2324 -1.0935,-12.1906 -3.17,-17.7119zm-34.167 66.091l0 0 -0.164 -1.2571 -12.9012 -33.4559 -12.9014 33.4559 -0.0544 1.0385c4.2636,1.2024 8.7463,1.804 13.3929,1.804 4.3738,0 8.5826,-0.5469 12.6281,-1.5854zm-36.6261 -4.5921l0 0 -23.1788 -60.4053c-1.8584,5.1929 -2.8425,10.7689 -2.8425,16.6183 0,18.8045 10.4958,35.3139 26.0213,43.787zm23.998 -93.807l0 0c-4.3186,0 -8.5276,0.5467 -12.5185,1.5855l12.6824 34.9864 12.6281 -34.9317c-4.1004,-1.0935 -8.4182,-1.6402 -12.792,-1.6402z"/>
  </g>
 </g>
</svg>
